<?xml version="1.0" encoding="utf-8"?>
<!-- Generator: Adobe Illustrator 24.0.0, SVG Export Plug-In . SVG Version: 6.00 Build 0)  -->
<svg version="1.1" id="Layer_1" xmlns="http://www.w3.org/2000/svg" xmlns:xlink="http://www.w3.org/1999/xlink" x="0px" y="0px"
	 viewBox="0 0 512 512" style="enable-background:new 0 0 512 512;" xml:space="preserve">
<style type="text/css">
	.st0{fill:none;}
	.st1{fill:#D64200;}
</style>
<g id="_x30_9_x2C__Alarm_Bell_x2C__Alarm_Clock_x2C__Ring_x2C__Bells_x2C__Clocks_x2C__Technology_x2C__Bell_x2C__Music">
	<g>
		<path class="st0" d="M306.4,441v10c0,27.6-22.4,50-50,50s-50-22.4-50-50v-10l49.6-11.6L306.4,441z"/>
		<path class="st0" d="M411.2,390c-13.1-52.9-19.8-107.3-19.8-161.8V206c0-64.3-44.9-118-105-131.6c-9.6-2.2-19.7-3.3-30-3.3h0
			c-10.3,0-20.4,1.2-30,3.3c-60.1,13.6-105,67.4-105,131.6v24.5c0,53.8-6.6,107.3-19.7,159.5c-0.1,0.2-0.1,0.4-0.1,0.6L272.6,413
			l138.7-22.4C411.3,390.4,411.2,390.2,411.2,390z"/>
		<path class="st0" d="M411.3,390.6c11.5,2.5,20.1,12.7,20.1,24.9c0,7-2.9,13.4-7.5,18c-4.6,4.6-11,7.5-18,7.5h-99.5h-100h-99.5
			c-14.1,0-25.5-11.4-25.5-25.5c0-7,2.8-13.4,7.5-18c3.4-3.4,7.8-5.9,12.7-6.9v0c1.7-0.4,3.5-0.6,5.4-0.6h299
			C407.8,390,409.6,390.2,411.3,390.6z"/>
		<g>
			<path class="st1" d="M419.7,382.8c-22.4-93.5-17.6-163.5-18.3-176.8c0-66.1-44.4-122-105-139.4V41c0-22.1-17.9-40-40-40
				s-40,17.9-40,40v25.6c-60.6,17.4-105,73.3-105,139.4c-0.7,14,4.4,83.6-18.3,176.8c-12.8,5.4-21.7,18-21.7,32.7
				c0,19.6,15.9,35.5,35.5,35.5h89.5c0,33.1,26.9,60,60,60s60-26.9,60-60h89.5c19.6,0,35.5-15.9,35.5-35.5
				C441.4,400.8,432.5,388.2,419.7,382.8z M236.4,41c0-11,9-20,20-20c11,0,20,9,20,20v21.4c-13.3-1.8-26.7-1.8-40,0V41z M131.4,206
				c0-68.9,56.1-125,125-125c68.9,0,125,56.1,125,125c0.7,13-4.1,81.1,17.1,174h-284C135.2,292.7,130.9,216.6,131.4,206z M256.4,491
				c-22.1,0-40-17.9-40-40h80C296.4,473.1,278.5,491,256.4,491z M405.9,431h-299c-8.5,0-15.5-7-15.5-15.5s7-15.5,15.5-15.5h299
				c8.5,0,15.5,7,15.5,15.5S414.5,431,405.9,431z"/>
			<path class="st1" d="M480.4,169.4c-5.5-33.6-18.9-66.2-38.6-94.1c-3.2-4.5-9.4-5.6-13.9-2.4s-5.6,9.4-2.4,13.9
				c18,25.5,30.2,55.2,35.2,85.9c0.9,5.4,6,9.1,11.5,8.2C477.6,180,481.3,174.8,480.4,169.4z"/>
			<path class="st1" d="M351.9,72.8c43.1,31,68.5,80.2,68.5,133.2c0,5.5,4.5,10,10,10s10-4.5,10-10c0-59.5-28.6-114.8-76.8-149.5
				c-4.5-3.2-10.7-2.2-14,2.3S347.5,69.5,351.9,72.8z"/>
			<path class="st1" d="M84.1,72.8c-4.5-3.2-10.8-2.1-13.9,2.4c-19.7,28-33.1,60.5-38.6,94.1c-0.9,5.4,2.8,10.6,8.2,11.5
				c5.5,0.9,10.6-2.8,11.5-8.2c5.1-30.7,17.2-60.4,35.2-85.9C89.7,82.3,88.6,76,84.1,72.8z"/>
			<path class="st1" d="M81.6,216c5.5,0,10-4.5,10-10c0-53.1,25.5-102.3,68.5-133.2c4.5-3.2,5.5-9.5,2.3-14c-3.2-4.5-9.5-5.5-14-2.3
				c-48.3,34.7-76.8,90-76.8,149.5C71.6,211.5,76,216,81.6,216z"/>
			<path class="st1" d="M256.4,121c46.9,0,85,38.1,85,85c0,5.5,4.5,10,10,10s10-4.5,10-10c0-57.9-47.1-105-105-105
				c-5.5,0-10,4.5-10,10S250.9,121,256.4,121z"/>
		</g>
	</g>
</g>
<g id="Layer_1_1_">
</g>
</svg>
