<?xml version="1.0" encoding="utf-8"?>
<!-- Generator: Adobe Illustrator 24.0.0, SVG Export Plug-In . SVG Version: 6.00 Build 0)  -->
<svg version="1.1" id="Layer_1" xmlns="http://www.w3.org/2000/svg" xmlns:xlink="http://www.w3.org/1999/xlink" x="0px" y="0px"
	 viewBox="0 0 512 512" style="enable-background:new 0 0 512 512;" xml:space="preserve">
<style type="text/css">
	.st0{fill:none;stroke:#FFFFFF;stroke-width:32;stroke-linecap:round;stroke-linejoin:round;}
</style>
<title></title>
<path class="st0" d="M350.5,148.7l-26.6-42.1C318.3,100.1,310.6,96,302,96h-92c-8.6,0-16.3,4.1-21.9,10.6l-26.6,42.1
	c-5.6,6.5-12.8,11.3-21.5,11.3H80c-17.7,0-32,14.3-32,32v192c0,17.7,14.3,32,32,32h352c17.7,0,32-14.3,32-32V192
	c0-17.7-14.3-32-32-32h-59C364.4,160,356.1,155.2,350.5,148.7z"/>
<polyline class="st0" points="124,158 124,136 100,136 100,158 "/>
<path class="st0" d="M335.8,285.2v-13.3c0-44.2-35.9-80-80-80c-18.6,0-36.6,6.5-51,18.4 M176,258.8v13.3c0,44.2,35.9,80,80.1,79.9
	c18.5,0,36.4-6.4,50.7-18.1"/>
<polyline class="st0" points="196,272 176,252 156,272 "/>
<polyline class="st0" points="356,272 336,292 316,272 "/>
</svg>
