<?xml version="1.0" encoding="UTF-8"?>
<svg xmlns="http://www.w3.org/2000/svg" version="1.1" viewBox="0 0 24 24">
  <defs>
    <style>
      .cls-1 {
        fill: #333;
      }
    </style>
  </defs>
  <!-- Generator: Adobe Illustrator 28.7.5, SVG Export Plug-In . SVG Version: 1.2.0 Build 176)  -->
  <g>
    <g id="Layer_1">
      <path class="cls-1" d="M14.5,16.1c0,.1.2.3.2.5s0,.4-.2.5-.3.2-.5.2-.4-.1-.5-.2l-4.5-4.5c0-.1,0-.2-.2-.3s-.1-.2-.1-.3c0-.1.1-.2.1-.3s0-.2.2-.3l4.5-4.5c.1,0,.3-.2.5-.2s.4,0,.5.2c0,0,.2.3.2.5s0,.4-.2.5l-4,4.1,4,4.1Z"/>
    </g>
  </g>
</svg>