<?xml version="1.0" encoding="utf-8"?>
<!-- Generator: Adobe Illustrator 24.0.0, SVG Export Plug-In . SVG Version: 6.00 Build 0)  -->
<svg version="1.1" id="Layer_1" xmlns="http://www.w3.org/2000/svg" xmlns:xlink="http://www.w3.org/1999/xlink" x="0px" y="0px"
	 viewBox="0 0 24 24" style="enable-background:new 0 0 24 24;" xml:space="preserve">
<style type="text/css">
	.st0{fill:#333333;}
</style>
<g>
	<path class="st0" d="M10.3,12L6.2,7.9C6.1,7.8,6,7.6,6,7.4C6,7.2,6.1,7,6.2,6.9c0.1-0.1,0.3-0.2,0.5-0.2c0.2,0,0.4,0.1,0.5,0.2
		l4.5,4.5c0.1,0.1,0.2,0.2,0.2,0.3S12,11.9,12,12s0,0.2-0.1,0.3s-0.1,0.2-0.2,0.3l-4.5,4.5c-0.1,0.1-0.3,0.2-0.5,0.2
		c-0.2,0-0.4-0.1-0.5-0.2C6.1,17,6,16.8,6,16.6c0-0.2,0.1-0.4,0.2-0.5L10.3,12z"/>
	<path class="st0" d="M16.3,12l-4.1-4.1C12.1,7.8,12,7.6,12,7.4c0-0.2,0.1-0.4,0.2-0.5c0.1-0.1,0.3-0.2,0.5-0.2
		c0.2,0,0.4,0.1,0.5,0.2l4.5,4.5c0.1,0.1,0.2,0.2,0.2,0.3c0,0.1,0.1,0.2,0.1,0.3s0,0.2-0.1,0.3c0,0.1-0.1,0.2-0.2,0.3l-4.5,4.5
		c-0.1,0.1-0.3,0.2-0.5,0.2c-0.2,0-0.4-0.1-0.5-0.2C12.1,17,12,16.8,12,16.6c0-0.2,0.1-0.4,0.2-0.5L16.3,12z"/>
</g>
</svg>
