<?xml version="1.0" encoding="utf-8"?>
<!-- Generator: Adobe Illustrator 24.0.0, SVG Export Plug-In . SVG Version: 6.00 Build 0)  -->
<svg version="1.1" id="Layer_1" xmlns="http://www.w3.org/2000/svg" xmlns:xlink="http://www.w3.org/1999/xlink" x="0px" y="0px"
	 viewBox="0 0 24 24" style="enable-background:new 0 0 24 24;" xml:space="preserve">
<style type="text/css">
	.st0{fill:#333333;}
</style>
<g>
	<path class="st0" d="M17.8,16.1c0.1,0.1,0.2,0.3,0.2,0.5c0,0.2-0.1,0.4-0.2,0.5c-0.1,0.1-0.3,0.2-0.5,0.2c-0.2,0-0.4-0.1-0.5-0.2
		l-4.5-4.5c-0.1-0.1-0.2-0.2-0.2-0.3S12,12.1,12,12s0-0.2,0.1-0.3s0.1-0.2,0.2-0.3l4.5-4.5c0.1-0.1,0.3-0.2,0.5-0.2
		c0.2,0,0.4,0.1,0.5,0.2C17.9,7,18,7.2,18,7.4c0,0.2-0.1,0.4-0.2,0.5L13.7,12L17.8,16.1z"/>
	<path class="st0" d="M11.8,16.1c0.1,0.1,0.2,0.3,0.2,0.5c0,0.2-0.1,0.4-0.2,0.5c-0.1,0.1-0.3,0.2-0.5,0.2c-0.2,0-0.4-0.1-0.5-0.2
		l-4.5-4.5c-0.1-0.1-0.2-0.2-0.2-0.3S6,12.1,6,12s0-0.2,0.1-0.3s0.1-0.2,0.2-0.3l4.5-4.5c0.1-0.1,0.3-0.2,0.5-0.2
		c0.2,0,0.4,0.1,0.5,0.2C11.9,7,12,7.2,12,7.4c0,0.2-0.1,0.4-0.2,0.5L7.7,12L11.8,16.1z"/>
</g>
</svg>
