<?xml version="1.0" encoding="utf-8"?>
<!-- Generator: Adobe Illustrator 24.0.0, SVG Export Plug-In . SVG Version: 6.00 Build 0)  -->
<svg version="1.1" id="Layer_1" xmlns="http://www.w3.org/2000/svg" xmlns:xlink="http://www.w3.org/1999/xlink" x="0px" y="0px"
	 viewBox="0 0 512 512" style="enable-background:new 0 0 512 512;" xml:space="preserve">
<style type="text/css">
	.st0{fill:none;stroke:#FFFFFF;stroke-width:32;stroke-linecap:round;stroke-miterlimit:10;}
</style>
<title></title>
<path class="st0" d="M431,320.6c-1-3.6,1.2-8.6,3.3-12.2c0.6-1.1,1.3-2.1,2.1-3.1c18-26.7,27.6-58.1,27.6-90.3
	c0.3-92.2-77.5-167-173.7-167c-83.9,0-153.9,57.1-170.3,132.9c-2.5,11.2-3.7,22.7-3.7,34.2c0,92.3,74.8,169.1,171,169.1
	c15.3,0,35.9-4.6,47.2-7.7s22.5-7.2,25.4-8.3c3-1.1,6.1-1.7,9.3-1.7c3.5,0,6.9,0.7,10.1,2l56.7,20.1c1.2,0.5,2.6,0.9,3.9,1
	c4.4,0,8-3.6,8-8c-0.1-0.9-0.2-1.8-0.5-2.7L431,320.6z"/>
<path class="st0" d="M66.5,232c-26.7,48-24.3,107,6.4,152.7c2.3,3.5,3.6,6.2,3.2,8s-11.9,61.9-11.9,61.9c-0.6,2.9,0.5,5.8,2.7,7.7
	c1.5,1.2,3.3,1.8,5.2,1.8c1,0,2-0.2,2.9-0.6l56.2-22c3.9-1.5,8.2-1.5,12,0.2c18.9,7.4,39.9,12,60.8,12c28.1,0,55.7-7.4,80.1-21.5"/>
</svg>
