<?xml version="1.0" encoding="utf-8"?>
<!-- Generator: Adobe Illustrator 24.0.0, SVG Export Plug-In . SVG Version: 6.00 Build 0)  -->
<svg version="1.1" id="Layer_1" xmlns="http://www.w3.org/2000/svg" xmlns:xlink="http://www.w3.org/1999/xlink" x="0px" y="0px"
	 viewBox="0 0 24 24" style="enable-background:new 0 0 24 24;" xml:space="preserve">
<style type="text/css">
	.st0{fill-rule:evenodd;clip-rule:evenodd;fill:#FFFFFF;}
</style>
<path class="st0" d="M13.1,2.7c1.1-0.5,2-0.7,3.5-0.7C20.3,2,23,5.1,23,9.1c0,3-1.7,6-4.8,8.8c-1.7,1.5-3.8,3-5.3,3.7L12,22.1
	l-0.9-0.4c-1.5-0.8-3.6-2.3-5.3-3.7C2.7,15.1,1,12.2,1,9.1C1,5.1,3.7,2,7.5,2c1.4,0,2.4,0.2,3.5,0.7c0.4,0.2,0.7,0.4,1.1,0.7
	C12.3,3.1,12.7,2.9,13.1,2.7z M16.8,16.4c2.8-2.5,4.2-4.9,4.2-7.3C21,6.2,19.1,4,16.5,4c-1.2,0-1.8,0.1-2.6,0.5
	c-0.5,0.2-0.9,0.5-1.3,0.9L12,6.2l-0.7-0.8c-0.4-0.4-0.8-0.7-1.2-0.9C9.2,4.1,8.6,4,7.5,4C4.9,4,3,6.1,3,9.1c0,2.4,1.4,4.8,4.2,7.3
	c1.5,1.4,3.5,2.7,4.8,3.4C13.4,19.2,15.3,17.8,16.8,16.4z"/>
</svg>
