<?xml version="1.0" encoding="utf-8"?>
<!-- Generator: Adobe Illustrator 24.0.0, SVG Export Plug-In . SVG Version: 6.00 Build 0)  -->
<svg version="1.1" id="Layer_1" xmlns:serif="http://www.serif.com/"
	 xmlns="http://www.w3.org/2000/svg" xmlns:xlink="http://www.w3.org/1999/xlink" x="0px" y="0px" viewBox="0 0 1296 1728"
	 style="enable-background:new 0 0 1296 1728;" xml:space="preserve">
<style type="text/css">
	.st0{fill:#CCCCCC;}
</style>
<g transform="matrix(1.01619,0,0,1.01619,44,43.8384)">
	<path class="st0" d="M594.4,262.9c-147.8,0-166.3,0.6-224.4,3.3c-57.9,2.6-97.5,11.8-132.1,25.3c-35.8,13.9-66.1,32.5-96.4,62.8
		c-30.3,30.3-48.9,60.6-62.8,96.4c-13.5,34.6-22.6,74.2-25.3,132.1c-2.6,58-3.3,76.6-3.3,224.4c0,147.8,0.6,166.3,3.3,224.4
		c2.6,57.9,11.8,97.5,25.3,132.1c13.9,35.8,32.5,66.1,62.8,96.4c30.3,30.3,60.6,48.9,96.4,62.8c34.6,13.5,74.2,22.6,132.1,25.3
		c58,2.6,76.6,3.3,224.4,3.3c147.8,0,166.3-0.6,224.4-3.3c57.9-2.6,97.5-11.8,132.1-25.3c35.8-13.9,66.1-32.5,96.4-62.8
		c30.3-30.3,48.9-60.6,62.8-96.4c13.5-34.6,22.6-74.2,25.3-132.1c2.6-58,3.3-76.6,3.3-224.4c0-147.8-0.6-166.3-3.3-224.4
		c-2.6-57.9-11.8-97.5-25.3-132.1c-13.9-35.8-32.5-66.1-62.8-96.4c-30.3-30.3-60.6-48.9-96.4-62.8c-34.6-13.5-74.2-22.6-132.1-25.3
		C760.7,263.6,742.2,262.9,594.4,262.9z M594.4,361c145.3,0,162.5,0.6,219.9,3.2c53.1,2.4,81.9,11.3,101,18.7
		c25.4,9.9,43.5,21.7,62.6,40.7c19,19,30.8,37.2,40.7,62.6c7.5,19.2,16.3,48,18.7,101c2.6,57.4,3.2,74.6,3.2,219.9
		c0,145.3-0.6,162.5-3.2,219.9c-2.4,53.1-11.3,81.9-18.7,101c-9.9,25.4-21.7,43.5-40.7,62.6c-19,19-37.2,30.8-62.6,40.7
		c-19.2,7.5-48,16.3-101,18.7c-57.4,2.6-74.6,3.2-219.9,3.2c-145.3,0-162.5-0.6-219.9-3.2c-53.1-2.4-81.9-11.3-101-18.7
		c-25.4-9.9-43.5-21.7-62.6-40.7c-19-19-30.8-37.2-40.7-62.6c-7.5-19.2-16.3-48-18.7-101c-2.6-57.4-3.2-74.6-3.2-219.9
		c0-145.3,0.6-162.5,3.2-219.9c2.4-53.1,11.3-81.9,18.7-101c9.9-25.4,21.7-43.5,40.7-62.6c19-19,37.2-30.8,62.6-40.7
		c19.2-7.4,48-16.3,101-18.7C431.9,361.5,449.1,361,594.4,361z"/>
	<path class="st0" d="M594.4,988.5c-100.2,0-181.4-81.2-181.4-181.4c0-100.2,81.2-181.4,181.4-181.4c100.2,0,181.4,81.2,181.4,181.4
		C775.8,907.3,694.6,988.5,594.4,988.5z M594.4,527.7c-154.3,0-279.4,125.1-279.4,279.4c0,154.3,125.1,279.4,279.4,279.4
		c154.3,0,279.4-125.1,279.4-279.4C873.8,652.8,748.7,527.7,594.4,527.7z"/>
	<path class="st0" d="M950.1,516.6c0,36.1-29.2,65.3-65.3,65.3c-36.1,0-65.3-29.2-65.3-65.3c0-36.1,29.2-65.3,65.3-65.3
		C920.9,451.3,950.1,480.6,950.1,516.6z"/>
</g>
</svg>
