<?xml version="1.0" encoding="utf-8"?>
<!-- Generator: Adobe Illustrator 24.0.0, SVG Export Plug-In . SVG Version: 6.00 Build 0)  -->
<svg version="1.1" id="Layer_1" xmlns="http://www.w3.org/2000/svg" xmlns:xlink="http://www.w3.org/1999/xlink" x="0px" y="0px"
	 viewBox="0 0 512 512" style="enable-background:new 0 0 512 512;" xml:space="preserve">
<style type="text/css">
	.st0{fill:none;stroke:#FFFFFF;stroke-width:32;stroke-miterlimit:10;}
	.st1{fill:#FFFFFF;}
</style>
<title></title>
<path class="st0" d="M448,256c0-106-86-192-192-192S64,150,64,256s86,192,192,192S448,362,448,256z"/>
<path class="st1" d="M350.7,150.9l-117.2,46.9c-16.3,6.5-29.2,19.4-35.7,35.7l-46.9,117.2c-1.6,4.1,0.4,8.8,4.5,10.4
	c1.9,0.8,4,0.8,5.9,0l117.2-46.9c16.3-6.5,29.2-19.4,35.7-35.7l46.9-117.2c1.6-4.1-0.4-8.8-4.5-10.4
	C354.7,150.2,352.6,150.2,350.7,150.9z M256,280c-13.3,0-24-10.7-24-24c0-13.3,10.7-24,24-24c13.3,0,24,10.7,24,24
	C280,269.3,269.3,280,256,280z"/>
</svg>
