<?xml version="1.0" encoding="utf-8"?>
<!-- Generator: Adobe Illustrator 27.9.6, SVG Export Plug-In . SVG Version: 9.03 Build 54986)  -->
<svg version="1.1" id="Layer_1" xmlns="http://www.w3.org/2000/svg" xmlns:xlink="http://www.w3.org/1999/xlink" x="0px" y="0px"
	 viewBox="0 0 32 32" style="enable-background:new 0 0 32 32;" xml:space="preserve">
<style type="text/css">
	.st0{fill:#FFFFFF;}
</style>
<g id="locate_location_map_pin">
	<path class="st0" d="M23.8,6.2c-4.3-4.3-11.3-4.3-15.6,0s-4.3,11.3,0,15.6l4.1,4.1c0.4,0.4,1,0.4,1.4,0s0.4-1,0-1.4l-4.1-4.1
		c-3.5-3.5-3.5-9.2,0-12.7s9.2-3.5,12.7,0s3.5,9.2,0,12.7c0,0,0,0,0,0l-7.1,7.1c-0.4,0.4-0.4,1,0,1.4c0,0,0,0,0,0
		c0.4,0.4,1,0.4,1.4,0c0,0,0,0,0,0l7.1-7.1C28.1,17.4,28.1,10.5,23.8,6.2C23.8,6.2,23.8,6.2,23.8,6.2z"/>
	<path class="st0" d="M21,14c0-2.8-2.2-5-5-5s-5,2.2-5,5s2.2,5,5,5S21,16.8,21,14z M13,14c0-1.7,1.3-3,3-3s3,1.3,3,3s-1.3,3-3,3
		S13,15.7,13,14z"/>
</g>
</svg>
