<?xml version="1.0" encoding="utf-8"?>
<!-- Generator: Adobe Illustrator 27.9.6, SVG Export Plug-In . SVG Version: 9.03 Build 54986)  -->
<svg version="1.1" id="Layer_1" xmlns="http://www.w3.org/2000/svg" xmlns:xlink="http://www.w3.org/1999/xlink" x="0px" y="0px"
	 viewBox="0 0 24 24" style="enable-background:new 0 0 24 24;" xml:space="preserve">
<style type="text/css">
	.st0{fill:none;stroke:#FFFFFF;stroke-miterlimit:10;}
</style>
<path class="st0" d="M20,20H5c-1.1,0-2-0.9-2-2V9c0-1.1,0.9-2,2-2h2 M9,4h4.9c0.7,0,1.3,0.3,1.7,0.9l0.8,1.2c0.4,0.6,1,0.9,1.7,0.9
	H19c1.1,0,2,0.9,2,2v6.5"/>
<path class="st0" d="M9.5,9.9C8.6,10.6,8,11.7,8,13c0,2.2,1.8,4,4,4c1.2,0,2.3-0.5,3-1.4"/>
<path class="st0" d="M3,3l18,18"/>
</svg>
