<?xml version="1.0" encoding="utf-8"?>
<!-- Generator: Adobe Illustrator 24.0.0, SVG Export Plug-In . SVG Version: 6.00 Build 0)  -->
<svg version="1.1" id="Layer_1" xmlns="http://www.w3.org/2000/svg" xmlns:xlink="http://www.w3.org/1999/xlink" x="0px" y="0px"
	 viewBox="0 0 32 32" style="enable-background:new 0 0 32 32;" xml:space="preserve">
<style type="text/css">
	.st0{fill:#FFFFFF;}
</style>
<title></title>
<g id="wa_whatsapp_message_communication_chat">
	<path class="st0" d="M16,3C8.8,3,3,8.8,3,16c0,2.1,0.5,4.2,1.5,6.1L3,27.7c-0.1,0.4,0,0.7,0.3,1C3.5,28.9,3.7,29,4,29
		c0.1,0,0.2,0,0.3,0l5.9-1.6c0.5-0.1,0.8-0.7,0.7-1.2c-0.1-0.5-0.7-0.8-1.2-0.7l-4.2,1.1l1.2-4.3c0.1-0.3,0-0.5-0.1-0.8
		c-3-5.3-1.2-12,4-15s12-1.2,15,4s1.2,12-4,15c-1.7,1-3.6,1.5-5.5,1.5c-0.6,0-1.2,0-1.8-0.1c-0.5-0.1-1.1,0.3-1.1,0.8
		c-0.1,0.5,0.3,1.1,0.8,1.1c7.1,1.2,13.8-3.6,15-10.7s-3.6-13.8-10.7-15C17.4,3.1,16.7,3,16,3z"/>
	<path class="st0" d="M15,11.2l-1.2-1.6c-0.4-0.5-0.9-0.8-1.5-0.8c-0.6,0-1.2,0.2-1.6,0.6l-1.2,1.2c-0.5,0.6-0.8,1.3-0.8,2.1
		c0,1.8,1.4,4,4,6.6c3.1,3,5.2,4,6.7,4c0.8,0,1.5-0.3,2-0.8l1.2-1.2c0.8-0.8,0.8-2,0.1-2.8c-0.1-0.1-0.2-0.2-0.3-0.3L20.8,17
		c-0.5-0.4-1.2-0.5-1.8-0.3l-1.5,0.5c-0.1,0-0.2,0-0.3-0.1c-0.9-0.6-1.7-1.4-2.4-2.3c0,0,0-0.1,0-0.1c0.1-0.4,0.4-1.1,0.5-1.6
		C15.6,12.4,15.4,11.7,15,11.2z M16.3,18.8c0.5,0.3,1.2,0.4,1.8,0.2l1.5-0.5l1.6,1.3L20,21c-0.5,0.5-2.3,0.3-5.9-3.2
		c-3-2.9-3.4-4.5-3.4-5.2c0-0.2,0.1-0.4,0.3-0.6l1.3-1.2l1.2,1.6c-0.2,0.5-0.4,1.2-0.5,1.6c-0.1,0.5-0.1,1,0.1,1.4
		C13.9,16.8,15,18,16.3,18.8L16.3,18.8z"/>
</g>
</svg>
