<?xml version="1.0" encoding="utf-8"?>
<!-- Generator: Adobe Illustrator 24.0.0, SVG Export Plug-In . SVG Version: 6.00 Build 0)  -->
<svg version="1.1" id="Layer_1" xmlns="http://www.w3.org/2000/svg" xmlns:xlink="http://www.w3.org/1999/xlink" x="0px" y="0px"
	 viewBox="0 0 24 24" style="enable-background:new 0 0 24 24;" xml:space="preserve">
<style type="text/css">
	.st0{fill:#FFFFFF;}
</style>
<g id="_10._Settings">
	<path class="st0" d="M22.2,13.3C22,13.2,21.9,13,22,12.8c0-0.3,0-0.5,0-0.8s0-0.5,0-0.8c0-0.2,0.1-0.4,0.2-0.5
		c1.2-0.7,1.6-2.2,0.9-3.4l-1.5-2.6c-0.7-1.2-2.2-1.6-3.4-0.9c-0.2,0.1-0.4,0.1-0.5,0c-0.4-0.3-0.9-0.6-1.4-0.8
		C16.1,2.9,16,2.7,16,2.5C16,1.1,14.9,0,13.5,0h-3C9.1,0,8,1.1,8,2.5C8,2.7,7.9,2.9,7.7,3c-0.5,0.2-1,0.5-1.4,0.8
		C6.2,3.9,6,3.9,5.8,3.8C4.6,3.1,3,3.5,2.4,4.7L0.9,7.3C0.2,8.5,0.6,10,1.8,10.7C2,10.8,2.1,11,2,11.2c0,0.3,0,0.5,0,0.8
		s0,0.5,0,0.8c0,0.2-0.1,0.4-0.2,0.5c-1.2,0.7-1.6,2.2-0.9,3.4l1.5,2.6c0.7,1.2,2.2,1.6,3.4,0.9c0.2-0.1,0.4-0.1,0.5,0
		c0.4,0.3,0.9,0.6,1.4,0.8C7.9,21.1,8,21.3,8,21.5c0,1.4,1.1,2.5,2.5,2.5h3c1.4,0,2.5-1.1,2.5-2.5c0-0.2,0.1-0.4,0.3-0.5
		c0.5-0.2,1-0.5,1.4-0.8c0.2-0.1,0.4-0.1,0.5,0c1.2,0.7,2.7,0.3,3.4-0.9l1.5-2.6C23.8,15.5,23.4,14,22.2,13.3z M20,12
		c0,0.2,0,0.4,0,0.6c-0.1,1,0.4,1.9,1.2,2.4c0.2,0.1,0.3,0.5,0.2,0.7c0,0,0,0,0,0l-1.5,2.6c-0.1,0.2-0.5,0.3-0.7,0.2
		c-0.8-0.5-1.9-0.4-2.7,0.1c-0.4,0.2-0.7,0.5-1.1,0.6c-0.9,0.4-1.4,1.3-1.4,2.3c0,0.3-0.2,0.5-0.5,0.5h-3c-0.3,0-0.5-0.2-0.5-0.5
		c0,0,0,0,0,0c0-1-0.6-1.8-1.4-2.3c-0.4-0.2-0.8-0.4-1.1-0.6C6.7,18,5.6,18,4.8,18.5c-0.2,0.1-0.6,0.1-0.7-0.2l-1.5-2.6
		c-0.1-0.2-0.1-0.6,0.2-0.7c0.8-0.5,1.3-1.4,1.2-2.4c0-0.2,0-0.4,0-0.6s0-0.4,0-0.6c0.1-1-0.4-1.9-1.2-2.4C2.5,8.9,2.5,8.5,2.6,8.3
		c0,0,0,0,0,0l1.5-2.6c0.1-0.2,0.5-0.3,0.7-0.2c0,0,0,0,0,0C5.6,6,6.7,6,7.5,5.4C7.8,5.2,8.2,5,8.6,4.8C9.4,4.4,10,3.5,10,2.5
		C10,2.2,10.2,2,10.5,2l0,0h3C13.8,2,14,2.2,14,2.5c0,0,0,0,0,0c0,1,0.6,1.8,1.4,2.3c0.4,0.2,0.8,0.4,1.1,0.6
		C17.3,6,18.4,6,19.2,5.5c0.2-0.1,0.6-0.1,0.7,0.2l1.5,2.6c0.1,0.2,0.1,0.6-0.2,0.7c-0.8,0.5-1.3,1.4-1.2,2.4C20,11.6,20,11.8,20,12
		z"/>
	<path class="st0" d="M12,7c-2.8,0-5,2.2-5,5s2.2,5,5,5s5-2.2,5-5C17,9.2,14.8,7,12,7z M12,15c-1.7,0-3-1.3-3-3s1.3-3,3-3s3,1.3,3,3
		S13.7,15,12,15z"/>
</g>
</svg>
