<svg id="Icons" xmlns="http://www.w3.org/2000/svg" viewBox="0 0 21.2 24"><defs><style>.cls-1{fill:#fff;}</style></defs><title>shopping1</title><path class="cls-1" d="M5.4,24H18.6a4,4,0,0,0,4-4,4.19,4.19,0,0,0,0-.5l-1.25-10a4,4,0,0,0-4-3.5H17V5A5,5,0,0,0,7,5V6H6.65a4,4,0,0,0-4,3.5l-1.25,10A4,4,0,0,0,4.9,24,4.07,4.07,0,0,0,5.4,24ZM9,5a3,3,0,0,1,6,0V6H9ZM3.41,19.75l1.25-10A2,2,0,0,1,6.65,8H7v2a1,1,0,0,0,2,0V8h6v2a1,1,0,0,0,2,0V8h.35a2,2,0,0,1,2,1.75l1.25,10A2,2,0,0,1,18.85,22l-.25,0H5.4a2,2,0,0,1-2-2,2.11,2.11,0,0,1,0-.25Z" transform="translate(-1.4)"/></svg>