<?xml version="1.0" encoding="utf-8"?>
<!-- Generator: Adobe Illustrator 24.0.0, SVG Export Plug-In . SVG Version: 6.00 Build 0)  -->
<svg version="1.1" id="Layer_1" xmlns="http://www.w3.org/2000/svg" xmlns:xlink="http://www.w3.org/1999/xlink" x="0px" y="0px"
	 viewBox="0 0 1280 225.3" style="enable-background:new 0 0 1280 225.3;" xml:space="preserve">
<style type="text/css">
	.st0{fill:#FFFFFF;}
</style>
<g transform="translate(647.97 -300.06)">
	<path class="st0" d="M325.6,312.6v25h24.4c10.7,0,17.7,6.7,21.7,11.1c3.2,3.6,73.6,83.4,75.3,85.5c1.7,2.1,1.7,2.1,1.7,3.5v39.6
		c0,1.8-0.2,3.6-0.5,5.4c-1,2.3-3,4.1-5.4,4.8c-2.3,0.3-4.6,0.4-7,0.4l-24.5,0v25h137.3v-25h-25.8c-2.3,0-4.6-0.1-6.9-0.4
		c-2.4-0.7-4.4-2.5-5.4-4.8c-0.4-1.8-0.5-3.6-0.6-5.4v-39.5c-0.2-1.3,0.2-2.6,0.9-3.7l76.2-86.9c7-7.8,10.6-9.5,19.8-9.5H632v-25
		H518.9v25H536c2.6-0.2,4.9,1.9,5.1,4.5c0.1,1.1-0.3,2.3-1,3.2c-0.4,0.5-47.4,55.8-48,56.3s-1,0.4-1.4-0.2
		c-0.4-0.6-46.9-56.1-46.9-56.1c-3.3-4-0.7-7.7,3.1-7.7h16.6v-25L325.6,312.6z"/>
	<path class="st0" d="M-11,312.6v25h21.9c15.8,0,16.9,8.8,16.9,16.5v117.2c0,7,0.4,16.6-9.7,16.6h-27v25h115.4v-25H78.3
		c-11.2,0-11.8-5.1-11.9-16.1V371.5L225,513h40.3l-2.1-159.8c0.2-11.7,0.9-15.6,13-15.6h25.3v-25H183.7v25h25.9
		c11.9,0,13.9,4.6,14,15.6l1.4,83.6L87.4,312.6L-11,312.6z"/>
	<path class="st0" d="M-530.8,300.1c-24.8,0-53,4.7-76.8,15.4c-22.2,9.9-40.3,25.9-40.3,52.3c0,13.8,5.2,27.2,14.7,37.3
		c6.4,5.9,16.8,16,43.9,22c12.1,2.6,38,6.7,63.8,9.4c25.8,2.7,50.8,5.1,61,7.9c8.1,2.1,21.8,4.9,21.8,20.3s-14.4,20-16.9,21
		c-2.5,1-19.8,8.9-50.9,8.9c-20.6-0.6-41-4.1-60.6-10.4c-11.6-4.1-23.8-9.6-35.1-23.5c-4.6-6.5-7.1-14.3-7.3-22.2h-28.2v78.8h31.3
		v-10.7c0-2.5,2-4.5,4.4-4.5c0.8,0,1.6,0.2,2.3,0.6c14.7,6.4,30.1,11.4,45.8,14.8c16.4,3.4,27.1,5.9,47.5,5.9
		c21.6,0.4,43-2.6,63.6-9c13.7-3.7,26.5-10.1,37.8-18.7c12.9-9.9,20.4-25.3,20.3-41.5c0.1-15.2-5.8-29.9-16.4-40.8
		c-5.9-5.7-12.7-10.4-20.2-13.8c-8-3.6-16.3-6.5-24.9-8.7c-16.2-4-52.7-8.9-70.1-10.7c-18.3-1.9-50-4.5-62.7-8.4
		c-3.8-1.2-11.7-4.9-11.7-14c0-6.5,3.6-12,10.7-16.4c11.2-7,33.9-11.4,57.6-11.4c22.9-0.3,45.6,4.2,66.7,13c5.7,2.5,11,5.7,15.9,9.5
		c7.9,6.8,13.4,16,15.6,26.2h25.3V310H-431v8c0,2.6-2.6,5.9-7.7,3.2C-451.4,314.5-487.1,300.2-530.8,300.1L-530.8,300.1z"/>
	<path class="st0" d="M-191.9,300.1c-44.4,0-91.5,15.4-118.1,39.5c-20.5,18.7-32.2,45.2-32.1,72.9c-0.3,27.9,11.4,54.6,32.1,73.2
		c28.7,25.8,71.7,39.6,118.1,39.6c46.5,0,90.4-13.7,118.4-39.6c20.1-19.1,31.6-45.5,31.7-73.2c0.3-27.7-11.2-54.2-31.7-72.9
		C-103.6,312.4-142.9,300.1-191.9,300.1L-191.9,300.1z M-191.9,329.4c24.3,0,47.6,8.7,63.4,24.2c15.2,15,23.2,36.2,23.2,58.9
		c0,23.8-7.2,43-23.2,58.9c-15.9,15.9-38.8,24.4-63.4,24.4c-24.4,0-47.7-8.7-63.5-24.4c-15.2-15.8-23.5-37-23-58.9
		c0-22.6,7.9-43.8,23-58.9C-239.7,338-216.2,329.4-191.9,329.4L-191.9,329.4z"/>
</g>
</svg>
