<?xml version="1.0" encoding="utf-8"?>
<!-- Generator: Adobe Illustrator 24.0.0, SVG Export Plug-In . SVG Version: 6.00 Build 0)  -->
<svg version="1.1" id="Stock_cut" xmlns="http://www.w3.org/2000/svg" xmlns:xlink="http://www.w3.org/1999/xlink" x="0px" y="0px"
	 viewBox="0 0 32 32" style="enable-background:new 0 0 32 32;" xml:space="preserve">
<style type="text/css">
	.st0{fill:none;stroke:#FFFFFF;stroke-width:2;stroke-linejoin:round;stroke-miterlimit:10;}
</style>
<desc></desc>
<g>
	<path class="st0" d="M7,25H6c-2.8,0-5-2.2-5-5l0,0c0-2.8,2.2-5,5-5h1V25z"/>
	<path class="st0" d="M26,25h-1V15h1c2.8,0,5,2.2,5,5l0,0C31,22.8,28.8,25,26,25z"/>
	<path class="st0" d="M5,15v-3C5,5.9,9.9,1,16,1l0,0c6.1,0,11,4.9,11,11v3"/>
	<path class="st0" d="M27,25v4c0,1.1-0.9,2-2,2h-3"/>
	<line class="st0" x1="18" y1="31" x2="20" y2="31"/>
</g>
</svg>
