<?xml version="1.0" encoding="utf-8"?>
<!-- Generator: Adobe Illustrator 24.0.0, SVG Export Plug-In . SVG Version: 6.00 Build 0)  -->
<svg version="1.1" id="Layer_1" xmlns="http://www.w3.org/2000/svg" xmlns:xlink="http://www.w3.org/1999/xlink" x="0px" y="0px"
	 viewBox="0 0 32 32" style="enable-background:new 0 0 32 32;" xml:space="preserve">
<style type="text/css">
	.st0{fill:#FFFFFF;}
</style>
<title></title>
<g id="kakao_talk_chat_media_social">
	<path class="st0" d="M29.9,13.1c-0.6,0-1,0.4-1,1c0,5.4-5.8,9.8-12.9,9.8c-0.7,0-1.5-0.1-2.2-0.2c-0.3,0-0.7,0.1-0.9,0.3
		c-1.1,1.2-2.5,2.3-4,3c0.5-1.2,0.8-2.6,0.7-3.9c0-0.3-0.2-0.7-0.6-0.8c-3.8-1.8-6-4.9-6-8.3C3.1,8.6,8.9,4.2,16,4.2
		c4.1-0.1,8.1,1.5,10.9,4.6c0.4,0.4,1,0.5,1.4,0.1c0.4-0.4,0.5-1,0.1-1.4C25.6,4.2,21,2.2,16,2.2C7.8,2.2,1.1,7.5,1.1,14.1
		c0,4,2.4,7.6,6.6,9.8c-0.1,1.4-0.6,2.7-1.3,3.9c0,0.1-0.1,0.1-0.1,0.2c-0.2,0.6,0.1,1.2,0.5,1.5c0.4,0.3,1,0.4,1.5,0.1
		c2.1-0.9,4.1-2.2,5.7-3.8c0.6,0.1,1.3,0.1,1.9,0.1c8.2,0,14.9-5.3,14.9-11.8C30.9,13.5,30.4,13.1,29.9,13.1
		C29.9,13.1,29.9,13.1,29.9,13.1z"/>
	<path class="st0" d="M10.8,17.6c0.5,0.2,1.1-0.1,1.3-0.6c0,0,0,0,0,0l1.1-2.8l1.1,2.8c0.1,0.4,0.5,0.6,0.9,0.6c0.1,0,0.2,0,0.4-0.1
		c0.5-0.2,0.8-0.8,0.6-1.3c0,0,0,0,0,0l-2-5.2c-0.2-0.5-0.8-0.8-1.3-0.6c-0.3,0.1-0.5,0.3-0.6,0.6l-2,5.2
		C10,16.8,10.2,17.4,10.8,17.6C10.7,17.6,10.8,17.6,10.8,17.6z"/>
	<path class="st0" d="M17.5,10.5c-0.6,0-1,0.4-1,1v5.2c0,0.6,0.4,1,1,1h2.6c0.6,0,1-0.4,1-1s-0.4-1-1-1h-1.6v-4.2
		C18.5,10.9,18.1,10.5,17.5,10.5z"/>
	<path class="st0" d="M8.5,17.7c0.6,0,1-0.4,1-1v-4.2h0.8c0.6,0,1-0.4,1-1s-0.4-1-1-1H6.7c-0.6,0-1,0.4-1,1s0.4,1,1,1h0.8v4.2
		C7.5,17.2,7.9,17.7,8.5,17.7z"/>
	<path class="st0" d="M22.5,10.5c-0.6,0-1,0.4-1,1v5.2c0,0.6,0.4,1,1,1s1-0.4,1-1v-1.2l1.5,1.8c0.2,0.2,0.5,0.4,0.8,0.4
		c0.6,0,1-0.4,1-1c0-0.3-0.1-0.5-0.3-0.7l-2-2.3l1.8-1.4c0.4-0.3,0.5-1,0.2-1.4c-0.3-0.4-1-0.5-1.4-0.2L23.5,12v-0.5
		C23.5,10.9,23,10.5,22.5,10.5z"/>
</g>
</svg>
