<?xml version="1.0" encoding="utf-8"?>
<!-- Generator: Adobe Illustrator 24.0.0, SVG Export Plug-In . SVG Version: 6.00 Build 0)  -->
<svg version="1.1" id="Layer_1" xmlns="http://www.w3.org/2000/svg" xmlns:xlink="http://www.w3.org/1999/xlink" x="0px" y="0px"
	 viewBox="0 0 512 512" style="enable-background:new 0 0 512 512;" xml:space="preserve">
<style type="text/css">
	.st0{fill:none;}
	.st1{fill:#FCA886;}
	.st2{fill:#D64200;}
</style>
<g id="_x32_5_x2C__Ticket_x2C__Pass_x2C__Casino_x2C__Entertainment_x2C__Tickets_x2C__Stars_x2C__File_x2C__Paper">
	<g>
		<path class="st0" d="M121,131h350c16.6,0,30,13.4,30,30v60c-9.7,0-18.4,3.9-24.8,10.3S466,246.3,466,256s3.9,18.4,10.3,24.8
			S491.3,291,501,291v60c0,16.6-13.4,30-30,30H121H11l40-41.7l-40-41.7L51,256l-40-41.7l40-41.7L11,131L121,131L121,131z"/>
		<polygon class="st1" points="319.3,241.8 280.2,270.2 295.1,316.1 256,287.8 216.9,316.1 231.8,270.2 192.8,241.8 241.1,241.8 
			256,195.9 270.9,241.8 		"/>
		<g>
			<path class="st2" d="M501,231c5.5,0,10-4.5,10-10v-60c0-22.1-17.9-40-40-40H11c-8.8,0-13.3,10.6-7.2,16.9l33.4,34.7L3.8,207.4
				c-3.7,3.9-3.7,10,0,13.9L37.1,256L3.8,290.7c-3.7,3.9-3.7,10,0,13.9l33.4,34.7L3.8,374.1C-2.3,380.4,2.2,391,11,391h460
				c22.1,0,40-17.9,40-40v-60c0-5.5-4.5-10-10-10c-13.8,0-25-11.2-25-25C476,242.2,487.2,231,501,231z M491,299.9V351
				c0,11-9,20-20,20H131v-20c0-5.5-4.5-10-10-10s-10,4.5-10,10v20H34.5l23.8-24.7c3.7-3.9,3.7-10,0-13.9l-33.4-34.7l33.4-34.7
				c3.7-3.9,3.7-10,0-13.9l-33.4-34.7l33.4-34.7c3.7-3.9,3.7-10,0-13.9L34.5,141H111v20c0,5.5,4.5,10,10,10s10-4.5,10-10v-20h340
				c11,0,20,9,20,20v51.1c-20,4.6-35,22.5-35,43.9C456,277.7,471.3,295.4,491,299.9z"/>
			<path class="st2" d="M121,196c-5.5,0-10,4.5-10,10v30c0,5.5,4.5,10,10,10s10-4.5,10-10v-30C131,200.5,126.5,196,121,196z"/>
			<path class="st2" d="M121,266c-5.5,0-10,4.5-10,10v30c0,5.5,4.5,10,10,10s10-4.5,10-10v-30C131,270.5,126.5,266,121,266z"/>
			<path class="st2" d="M319.3,231.8h-41.1l-12.7-39c-1.3-4.1-5.2-6.9-9.5-6.9s-8.2,2.8-9.5,6.9l-12.7,39h-41.1
				c-4.3,0-8.2,2.8-9.5,6.9c-1.3,4.1,0.1,8.6,3.6,11.2l33.2,24.1l-12.7,39c-1.3,4.1,0.1,8.6,3.6,11.2c3.5,2.5,8.3,2.5,11.8,0
				l33.2-24.1l33.2,24.1c1.8,1.3,3.8,1.9,5.9,1.9c6.8,0,11.6-6.6,9.5-13.1l-12.7-39l33.2-24.1c3.5-2.5,5-7.1,3.6-11.2
				C327.4,234.6,323.6,231.8,319.3,231.8z M270.7,273.3l5.4,16.7l-14.2-10.3c-3.5-2.5-8.2-2.5-11.8,0L235.9,290l5.4-16.7
				c1.3-4.1-0.1-8.6-3.6-11.2l-14.2-10.3h17.5c4.3,0,8.2-2.8,9.5-6.9l5.4-16.7l5.4,16.7c1.3,4.1,5.2,6.9,9.5,6.9h17.5l-14.2,10.3
				C270.8,264.7,269.3,269.2,270.7,273.3z"/>
		</g>
	</g>
</g>
<g id="Layer_1_1_">
</g>
</svg>
