<?xml version="1.0" encoding="utf-8"?>
<!-- Generator: Adobe Illustrator 24.0.0, SVG Export Plug-In . SVG Version: 6.00 Build 0)  -->
<svg version="1.1" id="Layer_1" xmlns="http://www.w3.org/2000/svg" xmlns:xlink="http://www.w3.org/1999/xlink" x="0px" y="0px"
	 viewBox="0 0 512 512" style="enable-background:new 0 0 512 512;" xml:space="preserve">
<style type="text/css">
	.st0{fill:none;stroke:#FFFFFF;stroke-width:32;stroke-miterlimit:10;}
	.st1{fill:none;stroke:#FFFFFF;stroke-width:32;stroke-linecap:round;stroke-miterlimit:10;}
</style>
<path class="st0" d="M366,146c-17.3-17.3-18.3-44.9-2.4-63.4c1.3-1.5,1.2-3.8-0.2-5.3l-44.1-44.2c-1.5-1.5-4-1.5-5.5,0l-70.3,70.3
	c-2.6,2.6-4.6,5.8-5.7,9.2l0,0c-2.3,7.1-7.9,12.6-14.9,15l0,0c-3.5,1.2-6.7,3.1-9.3,5.7L33.1,313.8c-1.5,1.5-1.5,4,0,5.5l44.1,44.1
	c1.4,1.4,3.7,1.5,5.3,0.2c19.6-16.8,49-14.6,65.8,5c15,17.5,15,43.3,0,60.8c-1.3,1.5-1.2,3.8,0.2,5.3l44.1,44.1c1.5,1.5,4,1.5,5.5,0
	l180.4-180.4c2.6-2.6,4.5-5.8,5.7-9.3l0,0c2.3-7.1,7.9-12.6,15-15l0,0c3.5-1.2,6.6-3.1,9.2-5.7l70.3-70.3c1.5-1.5,1.5-4,0-5.5
	l-44.1-44.1c-1.4-1.4-3.7-1.5-5.3-0.2C411,164.2,383.3,163.2,366,146z"/>
<line class="st1" x1="250.5" y1="140.4" x2="234" y2="123.9"/>
<line class="st1" x1="294.5" y1="184.5" x2="283.5" y2="173.5"/>
<line class="st1" x1="338.5" y1="228.5" x2="327.5" y2="217.5"/>
<line class="st1" x1="388.1" y1="278" x2="371.6" y2="261.5"/>
</svg>
