<svg id="Layer_1" data-name="Layer 1" xmlns="http://www.w3.org/2000/svg" viewBox="0 0 19.36 24"><defs><style>.cls-1{fill:#fff;}</style></defs><title>user2</title><g id="_icons" data-name=" icons"><path class="cls-1" d="M17.52,5.33a5.46,5.46,0,0,0-10.91,0,5.46,5.46,0,0,0,10.91,0ZM9,5.33a3,3,0,0,1,6.06,0A3,3,0,0,1,9,5.33Z" transform="translate(-2.32)"/><path class="cls-1" d="M3.09,17.09l-.61,2.3a3.6,3.6,0,0,0,.61,3.28A3.69,3.69,0,0,0,6,24H18.12a3.25,3.25,0,0,0,2.79-1.45,3.6,3.6,0,0,0,.61-3.28L20.91,17a6.6,6.6,0,0,0-6.43-5.09H9.64A6.82,6.82,0,0,0,3.09,17.09ZM4.79,20l.6-2.3a4.5,4.5,0,0,1,4.25-3.4h4.84a4.5,4.5,0,0,1,4.25,3.4l.6,2.3a1.5,1.5,0,0,1-.24,1.21,1.45,1.45,0,0,1-1,.37H6a.89.89,0,0,1-.85-.49A1,1,0,0,1,4.79,20Z" transform="translate(-2.32)"/></g></svg>