<?xml version="1.0" encoding="utf-8"?>
<!-- Generator: Adobe Illustrator 24.0.0, SVG Export Plug-In . SVG Version: 6.00 Build 0)  -->
<svg version="1.1" id="Layer_1" xmlns:serif="http://www.serif.com/"
	 xmlns="http://www.w3.org/2000/svg" xmlns:xlink="http://www.w3.org/1999/xlink" x="0px" y="0px" viewBox="0 0 1296 1728"
	 style="enable-background:new 0 0 1296 1728;" xml:space="preserve">
<style type="text/css">
	.st0{fill:#CCCCCC;}
</style>
<path class="st0" d="M1268.9,552.1c-14.9-55.8-58.8-99.7-114.6-114.6C1053.3,410.4,648,410.4,648,410.4s-405.3,0-506.3,27.1
	C85.9,452.4,42,496.3,27.1,552.1C0,653.1,0,864,0,864s0,210.9,27.1,311.9c14.9,55.8,58.8,99.7,114.6,114.6
	c101.1,27.1,506.3,27.1,506.3,27.1s405.3,0,506.3-27.1c55.8-14.9,99.7-58.8,114.6-114.6C1296,1074.9,1296,864,1296,864
	S1296,653.1,1268.9,552.1L1268.9,552.1z M518.4,1058.4V669.6L855.1,864L518.4,1058.4L518.4,1058.4z"/>
</svg>
